<svg width="16" height="16" viewBox="0 0 16 16" fill="none" xmlns="http://www.w3.org/2000/svg">
<mask id="mask0" mask-type="alpha" maskUnits="userSpaceOnUse" x="0" y="0" width="16" height="16">
<path fill-rule="evenodd" clip-rule="evenodd" d="M0.5 0.5H15.4999V15.5H0.5V0.5Z" fill="white"/>
</mask>
<g mask="url(#mask0)">
<path fill-rule="evenodd" clip-rule="evenodd" d="M4.748 1.625C2.85125 1.625 1.625 2.92475 1.625 4.937V11.063C1.625 13.0752 2.85125 14.375 4.748 14.375H11.249C13.148 14.375 14.375 13.0752 14.375 11.063V4.937C14.375 2.92475 13.148 1.625 11.2505 1.625H4.748ZM11.249 15.5H4.748C2.207 15.5 0.5 13.7165 0.5 11.063V4.937C0.5 2.2835 2.207 0.5 4.748 0.5H11.2505C13.7922 0.5 15.5 2.2835 15.5 4.937V11.063C15.5 13.7165 13.7922 15.5 11.249 15.5Z" fill="#389E48"/>
</g>
<path fill-rule="evenodd" clip-rule="evenodd" d="M5.62915 7.1738C5.17165 7.1738 4.80115 7.5443 4.80115 8.0003C4.80115 8.4563 5.17165 8.8268 5.62765 8.8268C6.0829 8.8268 6.45415 8.4563 6.45415 8.0003C6.45415 7.54505 6.08365 7.17455 5.62915 7.1738ZM5.62765 9.9518C4.5514 9.9518 3.67615 9.0758 3.67615 8.0003C3.67615 6.92405 4.5514 6.0488 5.62765 6.0488C6.7054 6.04955 7.57915 6.9248 7.57915 8.0003C7.57915 9.0758 6.7039 9.9518 5.62765 9.9518Z" fill="#389E48"/>
<path fill-rule="evenodd" clip-rule="evenodd" d="M11.7573 9.95188C11.4468 9.95188 11.1948 9.69988 11.1948 9.38938V8.56213H7.0188C6.7083 8.56213 6.4563 8.31088 6.4563 7.99963C6.4563 7.68913 6.7083 7.43713 7.0188 7.43713H11.7573C12.0678 7.43713 12.3198 7.68913 12.3198 7.99963V9.38938C12.3198 9.69988 12.0678 9.95188 11.7573 9.95188Z" fill="#389E48"/>
<path fill-rule="evenodd" clip-rule="evenodd" d="M9.63611 9.95188C9.32561 9.95188 9.07361 9.69988 9.07361 9.38938V7.99963C9.07361 7.68913 9.32561 7.43713 9.63611 7.43713C9.94661 7.43713 10.1986 7.68913 10.1986 7.99963V9.38938C10.1986 9.69988 9.94661 9.95188 9.63611 9.95188Z" fill="#389E48"/>
</svg>
