<svg width="21" height="20" viewBox="0 0 21 20" fill="none" xmlns="http://www.w3.org/2000/svg">
<path d="M13.277 2H8.50338C5.95946 2 4.5 3.19 4.5 5.27V14.59C4.5 16.76 5.95946 18 8.50338 18H13.277C15.8209 18 17.2804 16.81 17.2804 14.73V5.41C17.2804 3.24 15.8209 2 13.277 2Z" fill="#3B61D1"/>
<path d="M14.0879 15.06H7.69258C7.35812 15.06 7.08447 14.79 7.08447 14.46C7.08447 14.13 7.35812 13.86 7.69258 13.86H14.098C14.4324 13.86 14.7061 14.13 14.7061 14.46C14.696 14.79 14.4223 15.06 14.0879 15.06Z" fill="white"/>
<path d="M12.3345 5.59998H9.44598C9.13179 5.59998 8.88855 5.34998 8.88855 5.03998C8.88855 4.72998 9.14193 4.47998 9.44598 4.47998H12.3345C12.6487 4.47998 12.8919 4.72998 12.8919 5.03998C12.8919 5.34998 12.6385 5.59998 12.3345 5.59998Z" fill="white"/>
</svg>
