<svg width="21" height="20" viewBox="0 0 21 20" fill="none" xmlns="http://www.w3.org/2000/svg">
<g clip-path="url(#clip0)">
<path d="M13.46 15.06H7.15005C6.82005 15.06 6.55005 14.79 6.55005 14.46C6.55005 14.13 6.82005 13.86 7.15005 13.86H13.47C13.8 13.86 14.07 14.13 14.07 14.46C14.07 14.79 13.79 15.06 13.46 15.06Z" fill="#A7A7A7"/>
<path d="M11.73 5.60001H8.87996C8.56996 5.60001 8.32996 5.35001 8.32996 5.04001C8.32996 4.73001 8.57996 4.48001 8.87996 4.48001H11.73C12.04 4.48001 12.28 4.73001 12.28 5.04001C12.28 5.35001 12.03 5.60001 11.73 5.60001Z" fill="#A7A7A7"/>
<path d="M12.66 18H7.95C5.44 18 4 16.76 4 14.59V5.27C4 3.19 5.44 2 7.95 2H12.66C15.17 2 16.61 3.24 16.61 5.41V14.73C16.61 16.81 15.17 18 12.66 18ZM7.95 3.11C6.06 3.11 5.11 3.84 5.11 5.27V14.59C5.11 15.16 5.11 16.89 7.95 16.89H12.66C14.55 16.89 15.5 16.16 15.5 14.73V5.41C15.5 4.84 15.5 3.11 12.66 3.11H7.95Z" fill="#A7A7A7"/>
</g>
<defs>
<clipPath id="clip0">
<rect width="12.61" height="16" fill="white" transform="translate(4 2)"/>
</clipPath>
</defs>
</svg>
