<svg width="26" height="26" viewBox="0 0 26 26" fill="none" xmlns="http://www.w3.org/2000/svg">
<path d="M15.25 16.25V18.125C15.25 18.6223 15.0525 19.0992 14.7008 19.4508C14.3492 19.8025 13.8723 20 13.375 20H5.875C5.37772 20 4.90081 19.8025 4.54917 19.4508C4.19754 19.0992 4 18.6223 4 18.125V6.875C4 6.37772 4.19754 5.90081 4.54917 5.54917C4.90081 5.19754 5.37772 5 5.875 5H13C14.0355 5 15.25 5.83953 15.25 6.875V8.75" stroke="#FF647C" stroke-linecap="round" stroke-linejoin="round"/>
<path d="M18.25 16.25L22 12.5L18.25 8.75" stroke="#FF647C" stroke-linecap="round" stroke-linejoin="round"/>
<path d="M9.25 12.5H21.25" stroke="#FF647C" stroke-linecap="round" stroke-linejoin="round"/>
</svg>
