<svg width="21" height="20" viewBox="0 0 21 20" fill="none" xmlns="http://www.w3.org/2000/svg">
<path fill-rule="evenodd" clip-rule="evenodd" d="M7.84059 13.512H12.1495C12.4743 13.512 12.7436 13.24 12.7436 12.912C12.7436 12.584 12.4743 12.32 12.1495 12.32H7.84059C7.51584 12.32 7.24653 12.584 7.24653 12.912C7.24653 13.24 7.51584 13.512 7.84059 13.512ZM10.5178 8.32002H7.84059C7.51584 8.32002 7.24653 8.59202 7.24653 8.92002C7.24653 9.24802 7.51584 9.51202 7.84059 9.51202H10.5178C10.8426 9.51202 11.1119 9.24802 11.1119 8.92002C11.1119 8.59202 10.8426 8.32002 10.5178 8.32002ZM16.1705 7.62049C16.3566 7.61834 16.5594 7.616 16.7436 7.616C16.9416 7.616 17.1 7.776 17.1 7.976V14.408C17.1 16.392 15.5079 18 13.5436 18H7.23861C5.17921 18 3.5 16.312 3.5 14.232V5.608C3.5 3.624 5.1 2 7.07228 2H11.302C11.5079 2 11.6663 2.168 11.6663 2.368V4.944C11.6663 6.408 12.8624 7.608 14.3119 7.616C14.6505 7.616 14.9489 7.61853 15.2102 7.62075C15.4134 7.62247 15.594 7.624 15.7535 7.624C15.8662 7.624 16.0124 7.62231 16.1705 7.62049ZM16.3889 6.45281C15.7378 6.45521 14.9703 6.45281 14.4182 6.44721C13.5421 6.44721 12.8206 5.71841 12.8206 4.83361V2.72481C12.8206 2.38001 13.2348 2.20881 13.4716 2.45761C13.9008 2.90835 14.4909 3.52814 15.078 4.14489C15.6621 4.75851 16.2434 5.36912 16.6606 5.80721C16.8918 6.04961 16.7223 6.45201 16.3889 6.45281Z" fill="#3B61D1"/>
</svg>
