<svg width="21" height="20" viewBox="0 0 21 20" fill="none" xmlns="http://www.w3.org/2000/svg">
<path fill-rule="evenodd" clip-rule="evenodd" d="M6.68336 3.21735C5.34875 3.21735 4.24046 4.29826 4.20905 5.63126V14.2454C4.17925 15.6252 5.26659 16.7616 6.63262 16.7923H13.1277C14.472 16.7367 15.5368 15.6195 15.5271 14.2503V7.10602L11.7939 3.21735H6.69303H6.68336ZM6.69303 18.0004H6.60524C4.57391 17.9545 2.95659 16.2647 3.00089 14.2326V5.61679C3.0476 3.61849 4.69795 2.00922 6.68175 2.00922H6.69545H12.0516C12.2159 2.00922 12.373 2.07607 12.4874 2.19447L16.5669 6.44478C16.6749 6.55673 16.7353 6.70735 16.7353 6.8628V14.2455C16.7498 16.2663 15.1759 17.9175 13.1519 17.9996L6.69303 18.0004Z" fill="#A7A7A7"/>
<path fill-rule="evenodd" clip-rule="evenodd" d="M16.1272 7.6252H13.9082C12.4343 7.62117 11.2358 6.41945 11.2358 4.94711V2.60408C11.2358 2.27063 11.5064 2 11.8399 2C12.1733 2 12.4439 2.27063 12.4439 2.60408V4.94711C12.4439 5.75577 13.102 6.41462 13.9098 6.41704H16.1272C16.4607 6.41704 16.7313 6.68766 16.7313 7.02112C16.7313 7.35457 16.4607 7.6252 16.1272 7.6252Z" fill="#A7A7A7"/>
<path fill-rule="evenodd" clip-rule="evenodd" d="M11.6894 13.3633H7.34004C7.00659 13.3633 6.73596 13.0926 6.73596 12.7592C6.73596 12.4257 7.00659 12.1551 7.34004 12.1551H11.6894C12.0229 12.1551 12.2935 12.4257 12.2935 12.7592C12.2935 13.0926 12.0229 13.3633 11.6894 13.3633Z" fill="#A7A7A7"/>
<path fill-rule="evenodd" clip-rule="evenodd" d="M10.0424 10.3412H7.33931C7.00586 10.3412 6.73523 10.0706 6.73523 9.73714C6.73523 9.40368 7.00586 9.13306 7.33931 9.13306H10.0424C10.3758 9.13306 10.6464 9.40368 10.6464 9.73714C10.6464 10.0706 10.3758 10.3412 10.0424 10.3412Z" fill="#A7A7A7"/>
</svg>
