<svg width="21" height="20" viewBox="0 0 21 20" fill="none" xmlns="http://www.w3.org/2000/svg">
<mask id="mask0" mask-type="alpha" maskUnits="userSpaceOnUse" x="3" y="2" width="15" height="13">
<path fill-rule="evenodd" clip-rule="evenodd" d="M3.5 2H17.2651V14.9101H3.5V2Z" fill="white"/>
</mask>
<g mask="url(#mask0)">
<path fill-rule="evenodd" clip-rule="evenodd" d="M10.3815 3.11628C7.78056 3.11628 5.96772 5.15386 5.96772 6.98233C5.96772 8.52949 5.53832 9.24465 5.15879 9.87572C4.85442 10.3825 4.61404 10.7829 4.61404 11.6528C4.73832 13.0564 5.66484 13.7939 10.3815 13.7939C15.0721 13.7939 16.0276 13.0236 16.1512 11.6045C16.1489 10.7829 15.9086 10.3825 15.6042 9.87572C15.2247 9.24465 14.7953 8.52949 14.7953 6.98233C14.7953 5.15386 12.9824 3.11628 10.3815 3.11628ZM10.3815 14.9101C6.90168 14.9101 3.75675 14.6646 3.50001 11.7005C3.49778 10.474 3.8721 9.85042 4.20252 9.30121C4.53666 8.74456 4.85145 8.21991 4.85145 6.98233C4.85145 4.57637 7.07359 2 10.3815 2C13.6894 2 15.9115 4.57637 15.9115 6.98233C15.9115 8.21991 16.2263 8.74456 16.5605 9.30121C16.8909 9.85042 17.2652 10.474 17.2652 11.6528C17.0055 14.6646 13.8613 14.9101 10.3815 14.9101Z" fill="#A7A7A7"/>
</g>
<path fill-rule="evenodd" clip-rule="evenodd" d="M10.3452 18H10.3437C9.50945 17.9993 8.71987 17.6316 8.1208 16.9641C7.91466 16.7356 7.93327 16.3821 8.16248 16.1767C8.39168 15.9699 8.74443 15.9885 8.95057 16.2184C9.33606 16.6478 9.83094 16.8837 10.3444 16.8837H10.3452C10.8609 16.8837 11.358 16.6478 11.7442 16.2177C11.9511 15.9892 12.3039 15.9706 12.5323 16.1767C12.7615 16.3829 12.7801 16.7364 12.574 16.9648C11.9727 17.6324 11.1816 18 10.3452 18Z" fill="#A7A7A7"/>
</svg>
