<svg width="21" height="20" viewBox="0 0 21 20" fill="none" xmlns="http://www.w3.org/2000/svg">
<path fill-rule="evenodd" clip-rule="evenodd" d="M15.6657 7.43706C15.6657 8.44181 15.9312 9.03402 16.5156 9.71647C16.9585 10.2192 17.1 10.8646 17.1 11.5648C17.1 12.2642 16.8702 12.9281 16.4099 13.4671C15.8072 14.1133 14.9572 14.5259 14.0898 14.5976C12.8328 14.7047 11.5749 14.795 10.3004 14.795C9.02507 14.795 7.76804 14.741 6.511 14.5976C5.64277 14.5259 4.79282 14.1133 4.19093 13.4671C3.73058 12.9281 3.5 12.2642 3.5 11.5648C3.5 10.8646 3.64232 10.2192 4.08439 9.71647C4.68707 9.03402 4.93514 8.44181 4.93514 7.43706V7.09624C4.93514 5.75067 5.27066 4.87082 5.9616 4.00949C6.98885 2.75336 8.63548 2 10.2646 2H10.3362C12.0003 2 13.7002 2.78962 14.71 4.09973C15.3651 4.94333 15.6657 5.78612 15.6657 7.09624V7.43706ZM7.95893 16.4487C7.95893 16.0458 8.32864 15.8613 8.67053 15.7823C9.07046 15.6977 11.5074 15.6977 11.9073 15.7823C12.2492 15.8613 12.6189 16.0458 12.6189 16.4487C12.5991 16.8322 12.3741 17.1722 12.0632 17.3881C11.6601 17.7024 11.187 17.9014 10.6924 17.9731C10.4189 18.0086 10.1502 18.0094 9.88622 17.9731C9.39088 17.9014 8.9178 17.7024 8.51549 17.3873C8.20381 17.1722 7.9788 16.8322 7.95893 16.4487Z" fill="#3B61D1"/>
</svg>
