<svg width="21" height="20" viewBox="0 0 21 20" fill="none" xmlns="http://www.w3.org/2000/svg">
<path fill-rule="evenodd" clip-rule="evenodd" d="M6.54379 12.8218C6.41976 12.8218 6.29495 12.7824 6.18952 12.7021C5.93525 12.5065 5.88718 12.1425 6.08331 11.889L8.40355 8.88271C8.49812 8.75983 8.63844 8.68022 8.79193 8.6609C8.94853 8.64081 9.10202 8.68409 9.22373 8.78069L11.4099 10.4925L13.3223 8.03259C13.5192 7.77833 13.8836 7.73118 14.1379 7.92903C14.3921 8.12533 14.4386 8.48933 14.2417 8.74205L11.9703 11.6634C11.8758 11.7855 11.7362 11.8651 11.5827 11.8836C11.4277 11.9045 11.2742 11.8597 11.1517 11.7646L8.96713 10.0536L7.00505 12.5954C6.89032 12.7438 6.71822 12.8218 6.54379 12.8218Z" fill="#A7A7A7"/>
<mask id="mask0" mask-type="alpha" maskUnits="userSpaceOnUse" x="14" y="2" width="5" height="5">
<path fill-rule="evenodd" clip-rule="evenodd" d="M14.3573 2H18.5001V6.13073H14.3573V2Z" fill="white"/>
</mask>
<g mask="url(#mask0)">
<path fill-rule="evenodd" clip-rule="evenodd" d="M16.4286 3.15917C15.9278 3.15917 15.52 3.56491 15.52 4.06493C15.52 4.56418 15.9278 4.97147 16.4286 4.97147C16.9294 4.97147 17.3372 4.56418 17.3372 4.06493C17.3372 3.56491 16.9294 3.15917 16.4286 3.15917ZM16.4287 6.13071C15.2868 6.13071 14.3573 5.20408 14.3573 4.06492C14.3573 2.92576 15.2868 1.99991 16.4287 1.99991C17.5714 1.99991 18.5001 2.92576 18.5001 4.06492C18.5001 5.20408 17.5714 6.13071 16.4287 6.13071Z" fill="#A7A7A7"/>
</g>
<mask id="mask1" mask-type="alpha" maskUnits="userSpaceOnUse" x="2" y="2" width="16" height="16">
<path fill-rule="evenodd" clip-rule="evenodd" d="M2.5 2.65073H17.8973V18H2.5V2.65073Z" fill="white"/>
</mask>
<g mask="url(#mask1)">
<path fill-rule="evenodd" clip-rule="evenodd" d="M13.5336 18H6.86365C4.25349 18 2.49994 16.1722 2.49994 13.4519V7.20582C2.49994 4.48157 4.25349 2.65073 6.86365 2.65073H12.498C12.8189 2.65073 13.0794 2.9104 13.0794 3.23035C13.0794 3.55031 12.8189 3.80998 12.498 3.80998H6.86365C4.9194 3.80998 3.66277 5.14235 3.66277 7.20582V13.4519C3.66277 15.5424 4.88917 16.8407 6.86365 16.8407H13.5336C15.4779 16.8407 16.7345 15.5107 16.7345 13.4519V8.01188C16.7345 7.69193 16.995 7.43226 17.3159 7.43226C17.6369 7.43226 17.8974 7.69193 17.8974 8.01188V13.4519C17.8974 16.1722 16.1438 18 13.5336 18Z" fill="#A7A7A7"/>
</g>
</svg>
