<svg width="21" height="20" viewBox="0 0 21 20" fill="none" xmlns="http://www.w3.org/2000/svg">
<path fill-rule="evenodd" clip-rule="evenodd" d="M14.644 3.92799C14.644 2.864 15.508 2 16.572 2C17.636 2 18.5 2.864 18.5 3.92799C18.5 4.99199 17.636 5.85598 16.572 5.85598C15.508 5.85598 14.644 4.99199 14.644 3.92799ZM11.5639 12.2074L13.8759 9.2242L13.8439 9.2402C13.9719 9.0642 13.9959 8.8402 13.9079 8.6402C13.8207 8.44021 13.6279 8.30421 13.4207 8.28821C13.2039 8.26421 12.9887 8.36021 12.8599 8.5362L10.9247 11.0402L8.70795 9.2962C8.57195 9.1922 8.41195 9.1514 8.25195 9.1682C8.09275 9.1922 7.94875 9.2794 7.85195 9.4074L5.48476 12.4882L5.43596 12.5602C5.29996 12.8154 5.36396 13.1434 5.60396 13.3202C5.71596 13.3922 5.83596 13.4402 5.97196 13.4402C6.15676 13.4482 6.33196 13.3514 6.44396 13.2002L8.45195 10.6154L10.7319 12.3282L10.8039 12.3754C11.0599 12.5114 11.3799 12.4482 11.5639 12.2074ZM13.2599 3.42423C13.2279 3.62423 13.2119 3.82423 13.2119 4.02423C13.2119 5.82422 14.6679 7.27941 16.4599 7.27941C16.6599 7.27941 16.8519 7.25621 17.0519 7.22421V13.6794C17.0519 16.3922 15.4519 18.0002 12.7319 18.0002H6.82078C4.09999 18.0002 2.5 16.3922 2.5 13.6794V7.76021C2.5 5.04022 4.09999 3.42423 6.82078 3.42423H13.2599Z" fill="#3B61D1"/>
</svg>
