<svg width="21" height="20" viewBox="0 0 21 20" fill="none" xmlns="http://www.w3.org/2000/svg">
<mask id="mask0" mask-type="alpha" maskUnits="userSpaceOnUse" x="2" y="2" width="16" height="16">
<path fill-rule="evenodd" clip-rule="evenodd" d="M2.5 2H17.7V18H2.5V2Z" fill="white"/>
</mask>
<g mask="url(#mask0)">
<path fill-rule="evenodd" clip-rule="evenodd" d="M6.60027 13.9222C6.78076 13.9222 6.96126 13.9446 7.13781 13.9909C7.67062 14.1315 8.13329 14.4805 8.40757 14.9492C8.5857 15.2434 8.68423 15.587 8.68738 15.9375C8.68738 16.4395 9.09881 16.8418 9.60482 16.8418H10.5924C11.0961 16.8418 11.5075 16.4418 11.5099 15.9484C11.5067 15.4032 11.7242 14.8851 12.1223 14.4951C12.5148 14.1106 13.0634 13.8797 13.6119 13.8952C13.9714 13.9037 14.3174 13.9986 14.6224 14.1685C15.0614 14.4148 15.6218 14.2681 15.8756 13.8434L16.399 12.9887C16.5156 12.7918 16.5495 12.5447 16.4872 12.3169C16.4258 12.0891 16.2713 11.8914 16.0632 11.7748C15.5761 11.4999 15.2285 11.0567 15.0843 10.5255C14.9416 10.0042 15.0196 9.43516 15.2979 8.96646C15.4792 8.65759 15.7448 8.39737 16.0632 8.21823C16.4904 7.97346 16.6401 7.42599 16.3919 6.99976C16.3816 6.98277 16.3722 6.96501 16.3643 6.94648L15.9024 6.16196C15.651 5.73341 15.0914 5.58593 14.6524 5.8307C14.1779 6.10559 13.6135 6.18435 13.0713 6.04459C12.5298 5.90715 12.0758 5.57126 11.7928 5.09715C11.6115 4.80064 11.513 4.45548 11.5099 4.10415C11.517 3.84007 11.4224 3.60301 11.2506 3.42927C11.0795 3.25631 10.8391 3.15825 10.5924 3.15825H9.60482C9.36049 3.15825 9.13191 3.25168 8.9593 3.42001C8.78748 3.58911 8.69368 3.81381 8.69526 4.05318C8.67871 5.18209 7.73683 6.09092 6.59633 6.09092C6.23061 6.08706 5.87829 5.99054 5.57248 5.8114C5.14292 5.57203 4.58173 5.71951 4.3303 6.14806L3.7967 7.00748C3.55236 7.4229 3.70212 7.97191 4.1372 8.21978C4.78272 8.58578 5.18548 9.26837 5.18548 10.0004C5.18548 10.7324 4.78272 11.4142 4.13562 11.781C3.70291 12.0265 3.55315 12.5725 3.80379 12.9972L4.30114 13.8373C4.42409 14.0542 4.62508 14.211 4.8576 14.2751C5.08932 14.3384 5.34469 14.3114 5.5575 14.1955C5.87041 14.0156 6.23455 13.9222 6.60027 13.9222ZM10.5924 18H9.60481C8.44697 18 7.50509 17.078 7.50509 15.9437C7.50352 15.804 7.46253 15.6588 7.38608 15.5329C7.26233 15.3214 7.06214 15.17 6.8312 15.1098C6.60184 15.0496 6.35041 15.0828 6.1439 15.2001C5.64892 15.4704 5.06645 15.536 4.53364 15.3893C4.00162 15.2418 3.54211 14.8835 3.27255 14.4087L2.77994 13.577C2.20377 12.5979 2.54663 11.3432 3.54447 10.778C3.82743 10.6181 4.0032 10.3201 4.0032 10.0004C4.0032 9.68071 3.82743 9.38188 3.54447 9.22204C2.54584 8.65373 2.20377 7.39588 2.77915 6.41678L3.31354 5.55736C3.88182 4.58906 5.16655 4.24777 6.16834 4.81145C6.30469 4.89098 6.45287 4.93113 6.60341 4.93268C7.09445 4.93268 7.50509 4.53578 7.51298 4.04778C7.50982 3.50958 7.72657 2.993 8.12145 2.60306C8.51791 2.21389 9.04442 2 9.60481 2H10.5924C11.1567 2 11.7053 2.22702 12.0986 2.62159C12.4911 3.01848 12.7079 3.56286 12.6913 4.11496C12.6929 4.23927 12.7347 4.3829 12.8104 4.50876C12.9357 4.71724 13.1335 4.86395 13.3684 4.92418C13.6033 4.98132 13.8492 4.95044 14.0581 4.82921C15.0669 4.26476 16.3509 4.60296 16.927 5.58361L17.4181 6.41678C17.4307 6.43917 17.4417 6.46079 17.4512 6.48318C17.973 7.44916 17.6246 8.66532 16.6551 9.2205C16.514 9.30003 16.3997 9.41123 16.3209 9.54558C16.1988 9.75329 16.1649 10.0004 16.2263 10.2274C16.2894 10.4591 16.4399 10.6513 16.652 10.7702C17.1304 11.0397 17.4874 11.4938 17.6301 12.018C17.7728 12.5416 17.6947 13.1099 17.4165 13.5786L16.8931 14.4326C16.317 15.4024 15.033 15.7383 14.0344 15.1731C13.9012 15.0982 13.7475 15.0573 13.5946 15.0534H13.5899C13.3621 15.0534 13.128 15.1484 12.9577 15.3144C12.7851 15.4835 12.6906 15.709 12.6921 15.9484C12.6866 17.0827 11.7447 18 10.5924 18Z" fill="#A7A7A7"/>
</g>
<path fill-rule="evenodd" clip-rule="evenodd" d="M10.1021 8.54338C9.28244 8.54338 8.61563 9.1974 8.61563 10.0004C8.61563 10.8035 9.28244 11.456 10.1021 11.456C10.9219 11.456 11.5887 10.8035 11.5887 10.0004C11.5887 9.1974 10.9219 8.54338 10.1021 8.54338ZM10.1021 12.6142C8.6306 12.6142 7.43335 11.4421 7.43335 10.0004C7.43335 8.55882 8.6306 7.38513 10.1021 7.38513C11.5737 7.38513 12.7709 8.55882 12.7709 10.0004C12.7709 11.4421 11.5737 12.6142 10.1021 12.6142Z" fill="#A7A7A7"/>
</svg>
