<svg width="21" height="20" viewBox="0 0 21 20" fill="none" xmlns="http://www.w3.org/2000/svg">
<path fill-rule="evenodd" clip-rule="evenodd" d="M16.8219 11.264C17.108 11.416 17.3288 11.656 17.4841 11.896C17.7866 12.392 17.7621 13 17.4678 13.536L16.8955 14.496C16.593 15.008 16.0288 15.328 15.4484 15.328C15.1622 15.328 14.8434 15.248 14.5817 15.088C14.3692 14.952 14.1239 14.904 13.8623 14.904C13.0529 14.904 12.3743 15.568 12.3498 16.36C12.3498 17.28 11.5976 18 10.6574 18H9.54554C8.59716 18 7.845 17.28 7.845 16.36C7.82865 15.568 7.15007 14.904 6.34068 14.904C6.07088 14.904 5.82561 14.952 5.62122 15.088C5.3596 15.248 5.03258 15.328 4.7546 15.328C4.16596 15.328 3.60184 15.008 3.29934 14.496L2.73522 13.536C2.43272 13.016 2.41637 12.392 2.71886 11.896C2.84968 11.656 3.09494 11.416 3.37292 11.264C3.60184 11.152 3.749 10.968 3.88798 10.752C4.29677 10.064 4.0515 9.16 3.35657 8.752C2.54718 8.296 2.28555 7.28 2.75157 6.488L3.29934 5.544C3.77352 4.752 4.78731 4.472 5.60487 4.936C6.31615 5.32 7.24 5.064 7.65696 4.384C7.78777 4.16 7.86135 3.92 7.845 3.68C7.82865 3.368 7.91858 3.072 8.07392 2.832C8.37642 2.336 8.92419 2.016 9.52101 2H10.6738C11.2788 2 11.8265 2.336 12.129 2.832C12.2762 3.072 12.3743 3.368 12.3498 3.68C12.3334 3.92 12.407 4.16 12.5378 4.384C12.9548 5.064 13.8786 5.32 14.5981 4.936C15.4075 4.472 16.4294 4.752 16.8955 5.544L17.4432 6.488C17.9174 7.28 17.6558 8.296 16.8382 8.752C16.1433 9.16 15.898 10.064 16.315 10.752C16.4458 10.968 16.593 11.152 16.8219 11.264ZM7.78779 10.008C7.78779 11.264 8.8261 12.264 10.1097 12.264C11.3933 12.264 12.407 11.264 12.407 10.008C12.407 8.752 11.3933 7.744 10.1097 7.744C8.8261 7.744 7.78779 8.752 7.78779 10.008Z" fill="#3B61D1"/>
</svg>
