<svg width="16" height="15" viewBox="0 0 16 15" fill="none" xmlns="http://www.w3.org/2000/svg">
<path fill-rule="evenodd" clip-rule="evenodd" d="M15.4166 9.92171H12.3806C10.9578 9.92171 9.79982 8.76446 9.79907 7.34246C9.79907 5.91896 10.9571 4.76096 12.3806 4.76021H15.4166C15.7271 4.76021 15.9791 5.01221 15.9791 5.32271C15.9791 5.63321 15.7271 5.88521 15.4166 5.88521H12.3806C11.5773 5.88596 10.9241 6.53921 10.9241 7.34171C10.9241 8.14346 11.5781 8.79671 12.3806 8.79671H15.4166C15.7271 8.79671 15.9791 9.04871 15.9791 9.35921C15.9791 9.66971 15.7271 9.92171 15.4166 9.92171Z" fill="#4472EB"/>
<path fill-rule="evenodd" clip-rule="evenodd" d="M12.7237 7.8577H12.4897C12.1792 7.8577 11.9272 7.6057 11.9272 7.2952C11.9272 6.9847 12.1792 6.7327 12.4897 6.7327H12.7237C13.0342 6.7327 13.2862 6.9847 13.2862 7.2952C13.2862 7.6057 13.0342 7.8577 12.7237 7.8577Z" fill="#4472EB"/>
<mask id="mask0" mask-type="alpha" maskUnits="userSpaceOnUse" x="0" y="0" width="16" height="15">
<path fill-rule="evenodd" clip-rule="evenodd" d="M0.5 0.25H15.979V14.6297H0.5V0.25Z" fill="white"/>
</mask>
<g mask="url(#mask0)">
<path fill-rule="evenodd" clip-rule="evenodd" d="M4.99813 1.375C3.13813 1.375 1.62463 2.8885 1.62463 4.7485V10.1313C1.62463 11.9913 3.13813 13.5048 4.99813 13.5048H11.4811C13.3411 13.5048 14.8539 11.9913 14.8539 10.1313V4.7485C14.8539 2.8885 13.3411 1.375 11.4811 1.375H4.99813ZM11.4811 14.6298H4.99813C2.51788 14.6298 0.499634 12.6115 0.499634 10.1313V4.7485C0.499634 2.2675 2.51788 0.25 4.99813 0.25H11.4811C13.9614 0.25 15.9789 2.2675 15.9789 4.7485V10.1313C15.9789 12.6115 13.9614 14.6298 11.4811 14.6298Z" fill="#4472EB"/>
</g>
<path fill-rule="evenodd" clip-rule="evenodd" d="M8.51348 4.77858H4.46423C4.15373 4.77858 3.90173 4.52658 3.90173 4.21608C3.90173 3.90558 4.15373 3.65358 4.46423 3.65358H8.51348C8.82398 3.65358 9.07598 3.90558 9.07598 4.21608C9.07598 4.52658 8.82398 4.77858 8.51348 4.77858Z" fill="#4472EB"/>
</svg>
